<svg xmlns="http://www.w3.org/2000/svg" width="211" height="211" viewBox="0 0 211 211">
  <g id="Group_4" data-name="Group 4" transform="translate(-80 -164)">
    <circle id="Ellipse_1" data-name="Ellipse 1" cx="105.5" cy="105.5" r="105.5" transform="translate(80 164)" fill="#13b238"/>
    <path id="Icon_awesome-check" data-name="Icon awesome-check" d="M43.814,101.936,1.889,60.011a6.45,6.45,0,0,1,0-9.122l9.121-9.122a6.45,6.45,0,0,1,9.122,0L48.375,70.01,108.868,9.518a6.45,6.45,0,0,1,9.122,0l9.121,9.122a6.45,6.45,0,0,1,0,9.122L52.936,101.937a6.45,6.45,0,0,1-9.122,0Z" transform="translate(123 213.773)" fill="#fff"/>
  </g>
</svg>
