<svg xmlns="http://www.w3.org/2000/svg"
    width="18.136" height="20" viewBox="0 0 18.136 20">
  <path id="Icon_simple-email"
      data-name="Icon simple-email"
      d="M19.794,9.231a10.314,10.314,0,0,1-.332,2.237,6.474,6.474,0,0,1-.87,1.965,4.59,4.59,0,0,1-1.475,1.4,4.162,4.162,0,0,1-2.153.531,3.122,3.122,0,0,1-1.557-.381A2.667,2.667,0,0,1,12.354,13.9a3.335,3.335,0,0,1-2.822,1.417,2.869,2.869,0,0,1-2.463-1.325,4.337,4.337,0,0,1-.612-1.535,6.619,6.619,0,0,1-.08-2A9.3,9.3,0,0,1,6.986,8,6.665,6.665,0,0,1,8.113,6.125a4.769,4.769,0,0,1,1.55-1.2,4.324,4.324,0,0,1,1.885-.419,5.86,5.86,0,0,1,1.127.1,4.614,4.614,0,0,1,.875.262,4.731,4.731,0,0,1,.725.382c.221.142.444.29.665.44l-.547,6.3a2.094,2.094,0,0,0,.016.737,1.032,1.032,0,0,0,.225.455.81.81,0,0,0,.365.237,1.355,1.355,0,0,0,1.282-.252,2.733,2.733,0,0,0,.687-.875,5.634,5.634,0,0,0,.462-1.315,9.021,9.021,0,0,0,.2-1.637,10.463,10.463,0,0,0-.257-3.059,6.081,6.081,0,0,0-1.132-2.367,5.258,5.258,0,0,0-2.03-1.525,7.367,7.367,0,0,0-2.957-.541,6.529,6.529,0,0,0-2.924.637A6.71,6.71,0,0,0,6.11,4.252,8.481,8.481,0,0,0,4.655,6.91a11.979,11.979,0,0,0-.612,3.312A11.013,11.013,0,0,0,4.355,13.6,6.1,6.1,0,0,0,5.59,16.023a5.153,5.153,0,0,0,2.092,1.455,8.025,8.025,0,0,0,2.887.482,9.888,9.888,0,0,0,1.895-.2c.312-.062.609-.137.891-.22a6.706,6.706,0,0,0,.767-.275l.4,1.782a4.4,4.4,0,0,1-.859.425,8.265,8.265,0,0,1-1.015.294,9.9,9.9,0,0,1-2.12.237,11.116,11.116,0,0,1-3.864-.622,7.112,7.112,0,0,1-2.817-1.852,7.779,7.779,0,0,1-1.691-3.058,13.045,13.045,0,0,1-.472-4.245,12.947,12.947,0,0,1,.812-4.074A10.083,10.083,0,0,1,4.45,2.911,8.918,8.918,0,0,1,7.436.775,9.348,9.348,0,0,1,11.3,0,9.759,9.759,0,0,1,15.05.671a7.287,7.287,0,0,1,2.7,1.887,7.745,7.745,0,0,1,1.6,2.916A11.149,11.149,0,0,1,19.794,9.231ZM9.061,10.456a4.251,4.251,0,0,0,.22,2.108,1.13,1.13,0,0,0,1.087.712,1.2,1.2,0,0,0,.372-.069,1.328,1.328,0,0,0,.429-.257,2.288,2.288,0,0,0,.435-.525,4.028,4.028,0,0,0,.4-.887l.427-4.894a2.554,2.554,0,0,0-.665-.087,2.3,2.3,0,0,0-1.106.254,2.19,2.19,0,0,0-.784.745,4.374,4.374,0,0,0-.52,1.225,10.39,10.39,0,0,0-.295,1.675Z" transform="translate(-1.67)" fill="#fff"/>
</svg>
