<svg xmlns="http://www.w3.org/2000/svg" width="15" height="20" viewBox="0 0 15 20">
  <path id="Icon_awesome-file-alt" data-name="Icon awesome-file-alt" d="M8.75,5.312V0H.937A.935.935,0,0,0,0,.937V19.063A.935.935,0,0,0,.937,20H14.062A.935.935,0,0,0,15,19.063V6.25H9.687A.94.94,0,0,1,8.75,5.312Zm2.5,9.219a.47.47,0,0,1-.469.469H4.219a.47.47,0,0,1-.469-.469v-.312a.47.47,0,0,1,.469-.469h6.563a.47.47,0,0,1,.469.469Zm0-2.5a.47.47,0,0,1-.469.469H4.219a.47.47,0,0,1-.469-.469v-.312a.47.47,0,0,1,.469-.469h6.563a.47.47,0,0,1,.469.469Zm0-2.812v.313a.47.47,0,0,1-.469.469H4.219a.47.47,0,0,1-.469-.469V9.219a.47.47,0,0,1,.469-.469h6.563A.47.47,0,0,1,11.25,9.219ZM15,4.762V5H10V0h.238A.937.937,0,0,1,10.9.273L14.727,4.1A.935.935,0,0,1,15,4.762Z" fill="#464848"/>
</svg>
