<svg xmlns="http://www.w3.org/2000/svg" width="22.857" height="20" viewBox="0 0 22.857 20">
  <path id="Icon_awesome-list-alt" data-name="Icon awesome-list-alt" d="M20.714,22.25H2.143A2.143,2.143,0,0,1,0,20.107V4.393A2.143,2.143,0,0,1,2.143,2.25H20.714a2.143,2.143,0,0,1,2.143,2.143V20.107A2.143,2.143,0,0,1,20.714,22.25Zm-15-16.071A1.786,1.786,0,1,0,7.5,7.964,1.786,1.786,0,0,0,5.714,6.179Zm0,4.286A1.786,1.786,0,1,0,7.5,12.25,1.786,1.786,0,0,0,5.714,10.464Zm0,4.286A1.786,1.786,0,1,0,7.5,16.536,1.786,1.786,0,0,0,5.714,14.75ZM18.571,8.679V7.25a.536.536,0,0,0-.536-.536H9.107a.536.536,0,0,0-.536.536V8.679a.536.536,0,0,0,.536.536h8.929A.536.536,0,0,0,18.571,8.679Zm0,4.286V11.536A.536.536,0,0,0,18.036,11H9.107a.536.536,0,0,0-.536.536v1.429a.536.536,0,0,0,.536.536h8.929A.536.536,0,0,0,18.571,12.964Zm0,4.286V15.821a.536.536,0,0,0-.536-.536H9.107a.536.536,0,0,0-.536.536V17.25a.536.536,0,0,0,.536.536h8.929A.536.536,0,0,0,18.571,17.25Z" transform="translate(0 -2.25)"/>
</svg>
