<svg xmlns="http://www.w3.org/2000/svg" width="42.877" height="42.877" viewBox="0 0 42.877 42.877">
  <path id="Icon_metro-qrcode" data-name="Icon metro-qrcode" d="M15.97,4.608H5.251V15.327H15.97Zm2.68-2.68V18.007H2.571V1.928ZM7.93,7.288h5.36v5.36H7.93Zm34.838-2.68H32.049V15.327H42.768Zm2.68-2.68V18.007H29.369V1.928H45.448ZM34.729,7.288h5.36v5.36h-5.36ZM15.97,31.406H5.251V42.125H15.97Zm2.68-2.68V44.805H2.571V28.726ZM7.93,34.086h5.36v5.36H7.93ZM21.33,1.928h2.68v2.68H21.33Zm2.68,2.68h2.68v2.68h-2.68Zm-2.68,2.68h2.68v2.68H21.33Zm2.68,2.68h2.68v2.68h-2.68Zm-2.68,2.68h2.68v2.68H21.33Zm2.68,2.68h2.68v2.68h-2.68Zm-2.68,2.68h2.68v2.68H21.33Zm0,5.36h2.68v2.68H21.33Zm2.68,2.68h2.68v2.68h-2.68Zm-2.68,2.68h2.68v2.68H21.33Zm2.68,2.68h2.68v2.68h-2.68Zm-2.68,2.68h2.68v2.68H21.33Zm2.68,2.68h2.68v2.68h-2.68Zm-2.68,2.68h2.68v2.68H21.33Zm2.68,2.68h2.68v2.68h-2.68ZM42.768,23.367h2.68v2.68h-2.68Zm-37.518,0H7.93v2.68H5.251Zm2.68-2.68h2.68v2.68H7.93Zm-5.36,0h2.68v2.68H2.571Zm10.719,0h2.68v2.68H13.29Zm2.68,2.68h2.68v2.68H15.97Zm2.68-2.68h2.68v2.68H18.65Zm8.039,2.68h2.68v2.68h-2.68Zm2.68-2.68h2.68v2.68h-2.68Zm2.68,2.68h2.68v2.68h-2.68Zm2.68-2.68h2.68v2.68h-2.68Zm2.68,2.68h2.68v2.68h-2.68Zm2.68-2.68h2.68v2.68h-2.68Zm2.68,8.039h2.68v2.68h-2.68Zm-16.079,0h2.68v2.68h-2.68Zm2.68-2.68h2.68v2.68h-2.68Zm2.68,2.68h2.68v2.68h-2.68Zm5.36,0h2.68v2.68h-2.68Zm2.68-2.68h2.68v2.68h-2.68Zm2.68,8.039h2.68v2.68h-2.68Zm-16.079,0h2.68v2.68h-2.68Zm2.68-2.68h2.68v2.68h-2.68Zm5.36,0h2.68v2.68h-2.68Zm2.68,2.68h2.68v2.68h-2.68Zm2.68-2.68h2.68v2.68h-2.68Zm2.68,8.039h2.68v2.68h-2.68Zm-13.4-2.68h2.68v2.68h-2.68Zm2.68,2.68h2.68v2.68h-2.68Zm2.68-2.68h2.68v2.68h-2.68Zm2.68,2.68h2.68v2.68h-2.68Zm-8.039,2.68h2.68v2.68h-2.68Zm5.36,0h2.68v2.68h-2.68Zm5.36,0h2.68v2.68h-2.68Z" transform="translate(-2.571 -1.928)" fill="#fff"/>
</svg>
