<svg xmlns="http://www.w3.org/2000/svg" width="33" height="52.8" viewBox="0 0 33 52.8">
  <path id="Icon_awesome-mobile-alt"
      data-name="Icon awesome-mobile-alt"
      d="M28.05,0H4.95A4.951,4.951,0,0,0,0,4.95v42.9A4.951,4.951,0,0,0,4.95,52.8h23.1A4.951,4.951,0,0,0,33,47.85V4.95A4.951,4.951,0,0,0,28.05,0ZM16.5,49.5a3.3,3.3,0,1,1,3.3-3.3A3.3,3.3,0,0,1,16.5,49.5ZM28.05,38.362A1.241,1.241,0,0,1,26.813,39.6H6.188A1.241,1.241,0,0,1,4.95,38.362V6.188A1.241,1.241,0,0,1,6.188,4.95H26.813A1.241,1.241,0,0,1,28.05,6.188Z" fill="#fff"/>
</svg>
