<svg xmlns="http://www.w3.org/2000/svg" width="211" height="211" viewBox="0 0 211 211">
  <g id="Group_4" data-name="Group 4" transform="translate(-168.063 -240.063)">
    <path id="Icon_awesome-question-circle" data-name="Icon awesome-question-circle" d="M211.562,106.062A105.5,105.5,0,1,1,106.062.562,105.494,105.494,0,0,1,211.562,106.062ZM108.894,35.446c-23.183,0-37.969,9.766-49.58,27.123a5.112,5.112,0,0,0,1.155,6.916L75.229,80.677a5.1,5.1,0,0,0,7.089-.9c7.6-9.639,12.81-15.228,24.377-15.228,8.691,0,19.44,5.593,19.44,14.02,0,6.371-5.259,9.643-13.84,14.453-10.007,5.61-23.249,12.592-23.249,30.059v1.7a5.105,5.105,0,0,0,5.1,5.1h23.823a5.105,5.105,0,0,0,5.1-5.1v-.567c0-12.108,35.388-12.612,35.388-45.376C158.466,54.162,132.872,35.446,108.894,35.446Zm-2.831,105.5a19.569,19.569,0,1,0,19.569,19.569A19.59,19.59,0,0,0,106.062,140.946Z" transform="translate(167.5 239.5)" fill="#bc0202"/>
  </g>
</svg>
