<svg xmlns="http://www.w3.org/2000/svg" width="17" height="17" viewBox="0 0 17 17">
  <path id="Icon_metro-qrcode" data-name="Icon metro-qrcode" d="M7.883,2.991H3.633v4.25h4.25ZM8.946,1.928V8.3H2.571V1.928ZM4.7,4.053H6.821V6.178H4.7ZM18.508,2.991h-4.25v4.25h4.25V2.991Zm1.063-1.063V8.3H13.2V1.928Zm-4.25,2.125h2.125V6.178H15.321ZM7.883,13.616H3.633v4.25h4.25Zm1.063-1.062v6.375H2.571V12.553ZM4.7,14.678H6.821V16.8H4.7Zm5.313-12.75h1.063V2.991H10.008Zm1.063,1.063h1.062V4.053H11.071ZM10.008,4.053h1.063V5.116H10.008Zm1.063,1.063h1.062V6.178H11.071ZM10.008,6.178h1.063V7.241H10.008Zm1.063,1.063h1.062V8.3H11.071ZM10.008,8.3h1.063V9.366H10.008Zm0,2.125h1.063v1.063H10.008Zm1.063,1.063h1.062v1.062H11.071Zm-1.063,1.062h1.063v1.063H10.008Zm1.063,1.063h1.062v1.063H11.071Zm-1.063,1.063h1.063v1.063H10.008Zm1.063,1.063h1.062V16.8H11.071ZM10.008,16.8h1.063v1.063H10.008Zm1.063,1.063h1.062v1.062H11.071Zm7.438-7.438h1.062v1.063H18.508Zm-14.875,0H4.7v1.063H3.633ZM4.7,9.366H5.758v1.063H4.7Zm-2.125,0H3.633v1.063H2.571Zm4.25,0H7.883v1.063H6.821Zm1.063,1.063H8.946v1.063H7.883ZM8.946,9.366h1.063v1.063H8.946Zm3.187,1.063H13.2v1.063H12.133ZM13.2,9.366h1.063v1.063H13.2Zm1.063,1.063h1.063v1.063H14.258Zm1.063-1.063h1.062v1.063H15.321Zm1.062,1.063h1.063v1.063H16.383Zm1.063-1.063h1.063v1.063H17.446Zm1.063,3.188h1.062v1.063H18.508Zm-6.375,0H13.2v1.063H12.133ZM13.2,11.491h1.063v1.063H13.2Zm1.063,1.063h1.063v1.063H14.258Zm2.125,0h1.063v1.063H16.383Zm1.063-1.062h1.063v1.063H17.446Zm1.063,3.188h1.063v1.063H18.508Zm-6.375,0H13.2v1.063H12.133ZM13.2,13.616h1.063v1.063H13.2Zm2.125,0h1.062v1.063H15.321Zm1.062,1.063h1.063v1.063H16.383Zm1.063-1.063h1.063v1.063H17.446ZM18.508,16.8h1.063v1.063H18.508ZM13.2,15.741h1.063V16.8H13.2ZM14.258,16.8h1.063v1.063H14.258Zm1.063-1.062h1.063V16.8H15.321ZM16.383,16.8h1.063v1.063H16.383ZM13.2,17.866h1.063v1.062H13.2Zm2.125,0h1.063v1.062H15.321Zm2.125,0h1.063v1.062H17.446Z" transform="translate(-2.571 -1.928)" fill="#464848"/>
</svg>
