<svg xmlns="http://www.w3.org/2000/svg" width="15.156" height="16.534" viewBox="0 0 15.156 16.534">
  <g id="Icon_ionic-ios-stats" data-name="Icon ionic-ios-stats" transform="translate(-5.625 -4.5)">
    <path id="Path_1" data-name="Path 1" d="M12.719,21.034h2.067a.345.345,0,0,0,.344-.344V4.844a.345.345,0,0,0-.344-.344H12.719a.345.345,0,0,0-.344.344V20.69A.345.345,0,0,0,12.719,21.034Z" transform="translate(-2.616)" fill="#464848"/>
    <path id="Path_2" data-name="Path 2" d="M5.969,27.139H8.036a.345.345,0,0,0,.344-.344v-6.2a.345.345,0,0,0-.344-.344H5.969a.345.345,0,0,0-.344.344v6.2A.345.345,0,0,0,5.969,27.139Z" transform="translate(0 -6.105)" fill="#464848"/>
    <path id="Path_3" data-name="Path 3" d="M19.474,25.395h2.058a.347.347,0,0,0,.349-.349V16.1a.347.347,0,0,0-.349-.349H19.474a.347.347,0,0,0-.349.349v8.947A.347.347,0,0,0,19.474,25.395Z" transform="translate(-5.233 -4.361)" fill="#464848"/>
    <path id="Path_4" data-name="Path 4" d="M25.875,9.349V22.43a.347.347,0,0,0,.349.349h2.058a.347.347,0,0,0,.349-.349V9.349A.347.347,0,0,0,28.282,9H26.224A.347.347,0,0,0,25.875,9.349Z" transform="translate(-7.849 -1.744)" fill="#464848"/>
  </g>
</svg>
