<svg xmlns="http://www.w3.org/2000/svg" width="211" height="211" viewBox="0 0 211 211">
  <g id="Group_4" data-name="Group 4" transform="translate(-80 -164)">
    <circle id="Ellipse_1" data-name="Ellipse 1" cx="105.5" cy="105.5" r="105.5" transform="translate(80 164)" fill="#bc0202"/>
    <path id="Icon_metro-cross" data-name="Icon metro-cross" d="M102.78,83.227h0L71.837,52.283l30.942-30.942h0a3.195,3.195,0,0,0,0-4.507L88.162,2.216a3.2,3.2,0,0,0-4.507,0h0L52.712,33.159,21.77,2.217h0a3.2,3.2,0,0,0-4.507,0L2.645,16.833a3.195,3.195,0,0,0,0,4.507h0L33.588,52.283,2.645,83.226h0a3.194,3.194,0,0,0,0,4.507L17.262,102.35a3.2,3.2,0,0,0,4.507,0h0L52.712,71.408,83.654,102.35h0a3.194,3.194,0,0,0,4.506,0l14.617-14.617a3.194,3.194,0,0,0,0-4.507Z" transform="translate(132.788 217.217)" fill="#fff"/>
  </g>
</svg>
