<svg enable-background="new 0 0 276 276" viewBox="0 0 276 276" xmlns="http://www.w3.org/2000/svg"><path d="m0 0h276v276h-276z" fill="none"/><path d="m5 5h266v266h-266z" fill="none" stroke="#00a9cc" stroke-width="10"/><path d="m100.4 50.3h-50.1v50.1h50.1zm12.5-12.6v75.2h-75.2v-75.2zm-50.1 25.1h25.1v25.1h-25.1zm162.9-12.5h-50.1v50.1h50.1zm12.6-12.6v75.2h-75.2v-75.2zm-50.2 25.1h25.1v25.1h-25.1zm-87.7 112.8h-50.1v50.1h50.1zm12.5-12.5v75.2h-75.2v-75.2zm-50.1 25h25.1v25.1h-25.1zm62.7-150.4h12.5v12.5h-12.5zm12.5 12.6h12.5v12.5h-12.5zm-12.5 12.5h12.5v12.5h-12.5zm12.5 12.5h12.5v12.5h-12.5zm-12.5 12.6h12.5v12.5h-12.5zm12.5 12.5h12.5v12.5h-12.5zm-12.5 12.5h12.5v12.5h-12.5zm0 25.1h12.5v12.5h-12.5zm12.5 12.5h12.5v12.5h-12.5zm-12.5 12.6h12.5v12.5h-12.5zm12.5 12.5h12.5v12.5h-12.5zm-12.5 12.5h12.5v12.5h-12.5zm12.5 12.6h12.5v12.5h-12.5zm-12.5 12.5h12.5v12.5h-12.5zm12.5 12.5h12.5v12.5h-12.5zm87.7-87.7h12.5v12.5h-12.5zm-175.4 0h12.5v12.5h-12.5zm12.5-12.5h12.5v12.5h-12.5zm-25.1 0h12.5v12.5h-12.5zm50.2 0h12.5v12.5h-12.5zm12.5 12.5h12.5v12.5h-12.5zm12.5-12.5h12.5v12.5h-12.5zm37.6 12.5h12.5v12.5h-12.5zm12.6-12.5h12.5v12.5h-12.5zm12.5 12.5h12.5v12.5h-12.5zm12.5-12.5h12.5v12.5h-12.5zm12.6 12.5h12.5v12.5h-12.5zm12.5-12.5h12.5v12.5h-12.5zm12.5 37.6h12.5v12.5h-12.5zm-75.2 0h12.5v12.5h-12.5zm12.6-12.6h12.5v12.5h-12.5zm12.5 12.6h12.5v12.5h-12.5zm25.1 0h12.5v12.5h-12.5zm12.5-12.6h12.5v12.5h-12.5zm12.5 37.6h12.5v12.5h-12.5zm-75.2 0h12.5v12.5h-12.5zm12.6-12.5h12.5v12.5h-12.5zm25 0h12.5v12.5h-12.5zm12.6 12.5h12.5v12.5h-12.5zm12.5-12.5h12.5v12.5h-12.5zm12.5 37.6h12.5v12.5h-12.5zm-62.6-12.5h12.5v12.5h-12.5zm12.5 12.5h12.5v12.5h-12.5zm12.5-12.5h12.5v12.5h-12.5zm12.6 12.5h12.5v12.5h-12.5zm-37.6 12.5h12.5v12.5h-12.5zm25 0h12.5v12.5h-12.5zm25.1 0h12.5v12.5h-12.5z" opacity=".766"/></svg>