<svg xmlns="http://www.w3.org/2000/svg" width="27" height="21.6" viewBox="0 0 27 21.6">
  <path id="Icon_awesome-user-check" data-name="Icon awesome-user-check" d="M9.45,10.8a5.4,5.4,0,1,0-5.4-5.4A5.4,5.4,0,0,0,9.45,10.8Zm3.78,1.35h-.7a7.344,7.344,0,0,1-6.151,0h-.7A5.671,5.671,0,0,0,0,17.82v1.755A2.026,2.026,0,0,0,2.025,21.6h14.85A2.026,2.026,0,0,0,18.9,19.575V17.82a5.671,5.671,0,0,0-5.67-5.67ZM26.857,6.733,25.684,5.548a.5.5,0,0,0-.709,0L20.554,9.931,18.634,8a.5.5,0,0,0-.709,0L16.74,9.172a.5.5,0,0,0,0,.709l3.447,3.472a.5.5,0,0,0,.709,0l5.961-5.915a.5.5,0,0,0,0-.709Z" fill="#fff"/>
</svg>
